<svg xmlns="http://www.w3.org/2000/svg" viewBox="0 0 16 16"><g id="Layer_2" data-name="Layer 2"><g id="Camada_1" data-name="Camada 1"><g id="Z2Dgzf.tif"><path d="M6.2,16a2.88,2.88,0,0,0-.33-.28,6.54,6.54,0,0,1-2.26-3.25c-.07.32-.13.56-.18.79s-.2.36-.44.18L2.39,13c-.29-.21-.23-.38,0-.53l.61-.36A5.54,5.54,0,0,1,.1,8.24a3.55,3.55,0,0,1,3-4.39,4.14,4.14,0,0,1,.5,0A6,6,0,0,0,4.16,7,8.32,8.32,0,0,0,6.09,9.6,5.62,5.62,0,0,1,4,11.91a5.58,5.58,0,0,0,2.28,3.52c.22.15.45.3.12.57Z"/><path d="M9.67,16c-.32-.28-.09-.42.13-.58a5.59,5.59,0,0,0,2.27-3.51A5.65,5.65,0,0,1,10,9.65a7.33,7.33,0,0,0,2.51-5.84,7.87,7.87,0,0,1,1,.13,3.63,3.63,0,0,1,2.38,4.55A5.42,5.42,0,0,1,13,12.07l.69.42c.2.13.22.28,0,.44l0,0-.88.58-.35-.87a18.19,18.19,0,0,1-1.18,2A12,12,0,0,1,9.85,16Z"/><path d="M8.64,10.15l1,.67c.22.14.28.31.06.5s-.64.54-1,.81-.35.1-.41-.16a9.26,9.26,0,0,0-.25-1,5.58,5.58,0,0,0,.31,4.28c.05.09.14.18.15.28a1.94,1.94,0,0,1-.06.4c-.13-.05-.35-.07-.39-.16a15.82,15.82,0,0,1-.77-2.19,6,6,0,0,1,.36-3.29A6.61,6.61,0,0,1,4.34,6.59,4.9,4.9,0,0,1,4.14,3a4.16,4.16,0,0,1,4-3A4.23,4.23,0,0,1,12,3.18,4.83,4.83,0,0,1,11.93,6,7.35,7.35,0,0,1,8.64,10.15Z"/></g></g></g></svg>