<?xml version="1.0" encoding="utf-8"?>
<!-- Generator: Adobe Illustrator 25.3.1, SVG Export Plug-In . SVG Version: 6.00 Build 0)  -->
<svg version="1.1" id="Layer_1" xmlns="http://www.w3.org/2000/svg" xmlns:xlink="http://www.w3.org/1999/xlink" x="0px" y="0px"
	 viewBox="0 0 16 16" style="enable-background:new 0 0 16 16;" xml:space="preserve">
<g id="Layer_2_1_">
	<g id="Camada_1">
		<g id="uKdYAk.tif">
			<path d="M1.4,14.7v-2.8c1,0.5,2.2,0.2,2.9-0.7c0.4,0.6,1.1,0.9,1.9,0.9c0.7,0,1.4-0.3,1.9-0.9c1.3,1.2,2.6,1.2,3.7,0.1
				c0.4,0.3,0.9,0.6,1.3,0.8c0.5,0.1,1.1,0.1,1.6,0v2.7L1.4,14.7z"/>
			<path d="M8,3.2h3.6c0.7-0.1,1.3,0.4,1.5,1.1c0.2,0.6-0.1,1.3-0.7,1.5c0,0,0,0,0,0c-0.7,0.3-1.5,0-1.9-0.6c-0.3-0.5-0.7-0.5-1,0
				C8.8,5.9,7.8,6.1,7.1,5.6C6.9,5.5,6.8,5.3,6.7,5.2c-0.3-0.5-0.7-0.5-1,0C5.3,5.7,4.6,6,3.9,5.8c-0.7-0.1-1.1-0.7-1-1.3
				c0-0.1,0-0.1,0-0.2C3,3.6,3.6,3.1,4.3,3.2C5.5,3.2,6.8,3.2,8,3.2z"/>
			<path d="M6.2,5.5c0.8,1,2.2,1.2,3.3,0.4c0.2-0.1,0.3-0.3,0.4-0.4c0.7,0.9,2,1.2,3,0.6v2.1H3.2V6.2C4.2,6.7,5.4,6.5,6.2,5.5z"/>
			<path d="M16,15.1V16H0v-0.9H16z"/>
			<path d="M9.6,1.1C9.4,1.4,9.2,1.7,9,2C7.9,3,8.1,3,7,2C6.8,1.7,6.6,1.4,6.4,1.1c-0.1-0.3,0-0.7,0.3-0.9C7,0,7.4-0.1,7.7,0.1
				c0.2,0,0.3,0,0.5,0c0.5-0.2,1.1,0,1.3,0.5C9.6,0.8,9.6,0.9,9.6,1.1z"/>
		</g>
	</g>
</g>
<path d="M8,8.6h5.3c0.9-0.1,1.6,0.5,1.8,1.3c0,0.3,0,0.6-0.1,0.8c-0.4,0.6-1.2,0.9-1.9,0.6c-0.3-0.2-0.6-0.4-0.8-0.6
	c-0.3-0.4-0.6-0.4-1,0c-0.5,0.8-1.5,1-2.3,0.5c-0.2-0.1-0.4-0.3-0.5-0.5c-0.3-0.4-0.7-0.4-1,0c-0.5,0.8-1.5,1-2.3,0.5
	c-0.2-0.1-0.4-0.3-0.5-0.5c-0.3-0.4-0.7-0.4-1,0c-0.4,0.6-1.2,0.9-1.9,0.7c-0.5-0.1-0.9-0.5-0.8-1.1c0-0.2,0-0.5,0-0.7
	c0.2-0.7,0.8-1.1,1.5-1L8,8.6z"/>
</svg>
