<svg xmlns="http://www.w3.org/2000/svg" viewBox="0 0 16 16"><defs><style>.cls-1{fill:#231f20;}.cls-2{fill:#252223;}</style></defs><g id="Layer_2" data-name="Layer 2"><g id="Camada_1" data-name="Camada 1"><path class="cls-1" d="M4.06,4c-.29-.12-.56-.22-.83-.35a.45.45,0,0,0-.42,0c-.27.13-.55.23-.85.35V3.06c.25.1.49.18.71.29a.66.66,0,0,0,.68,0c.22-.12.46-.19.71-.3Zm8.46,1.9a.19.19,0,0,1-.18,0,.83.83,0,0,1-.09-.16,6.45,6.45,0,0,0-.54-.82,1.4,1.4,0,0,0-1.26-.6,7.75,7.75,0,0,1-1.18,0A1.4,1.4,0,0,0,8,4.86a7.12,7.12,0,0,0-.57.86c0,.07-.08.2-.19.15s0-.14,0-.22c.27-1,.56-1.94.88-2.89a2.29,2.29,0,0,1,.71-1.11,1.56,1.56,0,0,1,2.29.4,5.55,5.55,0,0,1,.62,1.3c.28.73.52,1.47.74,2.22,0,.07,0,.14.07.27A.06.06,0,0,1,12.52,5.88Zm3,1.47a.43.43,0,0,1,.21-.23.46.46,0,0,0,.05-.78c-.15-.08-.15-.14-.1-.29a.4.4,0,0,0-.26-.51.41.41,0,0,0-.56.15c-.07.15-.12.15-.25.1a1.65,1.65,0,0,1-.26-.14.44.44,0,0,0-.69.18c0,.06,0,.15-.14.09a.44.44,0,0,0-.53.14L13,6.13s0,0,0-.07a18.26,18.26,0,0,0-.58-1.91,10.9,10.9,0,0,0-.85-2.09A1.94,1.94,0,0,0,8,2.41C7.53,3.54,7.21,4.7,6.88,5.86c-.07.22,0,.39.29.34-.2.31-.37.57-.55.83a.29.29,0,0,1-.08-.2C6.38,6,6.25,5.16,6.06,4.34A1.77,1.77,0,0,0,4.15,2.81c-.72,0-1.44,0-2.16,0A1.79,1.79,0,0,0,.06,4.55C0,6,0,7.4,0,8.83a.54.54,0,0,0,.49.53c.42.07.71-.19.71-.67,0-1.13,0-2.26,0-3.4V5.1c0-.08,0-.11.11-.11s.13,0,.12.11V15.27a.69.69,0,0,0,.62.68.69.69,0,0,0,.81-.51,1.44,1.44,0,0,0,0-.46c0-1.53,0-3.05,0-4.58,0-.31,0-.62,0-.93s.1-.19.22-.17.07.15.07.23v5.24a2.44,2.44,0,0,0,0,.66A.72.72,0,0,0,4,16a.69.69,0,0,0,.67-.63,1.51,1.51,0,0,0,0-.3V5.16c0-.09,0-.17.11-.17S5,5,5,5.13a.76.76,0,0,0,0,.16c.19,1.1.38,2.2.58,3.29.07.4.22.58.54.63a.7.7,0,0,0,.74-.37c.51-.81,1-1.61,1.54-2.41.06-.09.11-.27.24-.22s.05.22.05.33A4.55,4.55,0,0,1,8.3,8.31C7.87,9.49,7.36,10.64,7,11.83c-.08.27,0,.31.23.29s.65,0,1,0c.16,0,.21,0,.21.21,0,.83,0,1.66,0,2.5a4,4,0,0,0,0,.49.69.69,0,0,0,.71.68.68.68,0,0,0,.64-.71,1.92,1.92,0,0,0,0-.24c0-.91,0-1.81,0-2.72,0-.2.08-.22.24-.21s.13.13.13.23c0,1,0,2,0,3a.58.58,0,0,0,.35.59.65.65,0,0,0,.75-.11.79.79,0,0,0,.25-.67c0-.93,0-1.86,0-2.79,0-.2.05-.25.23-.24.41,0,.81,0,1.24,0l-.1-.34c-.4-1.25-1-2.44-1.39-3.68a4,4,0,0,1-.35-1.7c0-.07-.06-.18.06-.2s.13.08.17.15c.37.7.74,1.4,1.12,2.09.07.13,0,.18-.09.22l-.15.05c-.09,0-.09.09-.06.17s.06.08.14.06.15-.11.23-.07-.24.16-.13.31.22-.18.37-.08v.08c0,.09-.13.21.06.26s.13-.11.15-.19.12-.33.33-.39a.36.36,0,0,0,.27-.37c0-.42.3-.51.54-.7a.15.15,0,0,1,.2,0c.08.06,0,.11,0,.16a.48.48,0,0,0,.49.62c.22,0,.28-.24.41-.32s.35.12.54,0S16,7.58,15.55,7.35Zm.15-.81c.13.13.07.25-.06.39-.08-.14-.27-.22-.17-.4S15.64,6.48,15.7,6.54Zm-.47-.81a.24.24,0,0,1,.27.21c0,.1-.06.16-.15.23,0-.14-.26-.07-.29-.22A.17.17,0,0,1,15.23,5.73ZM14.6,6c.06.06.19.08.07.2s-.09.13-.14.07S14.59,6.11,14.6,6Zm-.08.52a.17.17,0,0,1,.15.22c-.05.28-.27,0-.4.12C14.41,6.79,14.23,6.47,14.52,6.53Zm-1.15,1.2a11.59,11.59,0,0,1-.69-1.3c0-.09,0-.15.08-.17s.15,0,.18-.1c-.07.12-.1.27,0,.35.25.28.27.64.44,1l.07.08A.13.13,0,0,1,13.37,7.73Zm0-1.15c-.14,0-.24,0-.24-.19s.05-.25.2-.27a.24.24,0,0,1,.21.12C13.47,6.33,13.56,6.53,13.41,6.58Zm.34.74c-.12,0-.24-.06-.26-.22a.22.22,0,0,1,.14-.21c.06.14.3,0,.31.21A.18.18,0,0,1,13.75,7.32ZM13.89,6c0-.13.06-.23.23-.23s.23.08.23.23-.09.23-.15.17S13.9,6.2,13.89,6Zm.32,1.34c0-.11.06-.23.21-.24s.22.1.2.13,0,.31-.21.33S14.21,7.51,14.21,7.35Zm.51,1c-.13,0-.25-.07-.24-.23s.08-.22.14-.18.27,0,.31.18S14.85,8.35,14.72,8.33ZM15,7c0-.12.07-.21.21-.2s.24.07.24.23a.2.2,0,0,1-.17.2C15.22,7.11,15,7.24,15,7Zm.49,1c-.09,0-.22-.12-.18-.15s0-.29.18-.32.24.08.22.22A.24.24,0,0,1,15.45,8.07Z"/><path class="cls-1" d="M4.28,1.31A1.3,1.3,0,0,1,3,2.61,1.27,1.27,0,0,1,1.72,1.3,1.27,1.27,0,0,1,3,0,1.3,1.3,0,0,1,4.28,1.31Z"/><path class="cls-2" d="M6.85,1.87c0,.17-.35.51-.51.5a.75.75,0,0,1-.5-.51.23.23,0,0,1,.38-.19c.11.08.16.06.26,0A.23.23,0,0,1,6.85,1.87Z"/><path class="cls-1" d="M9.82,4.11A1.22,1.22,0,0,1,8.6,2.88,1.24,1.24,0,0,1,9.82,1.62a1.23,1.23,0,0,1,1.25,1.23A1.22,1.22,0,0,1,9.82,4.11Z"/></g></g></svg>