<svg xmlns="http://www.w3.org/2000/svg" viewBox="0 0 28 16"><g id="Layer_2" data-name="Layer 2"><g id="Camada_1" data-name="Camada 1"><path d="M20.64,12.12a1.68,1.68,0,0,0-1.31-1.51,7.61,7.61,0,0,1-2.31-1c-.53-.35-.69-.19-.84.34-.29,1-.63,2-.95,3-.4-.88-1.09-1.68-.36-2.64a.56.56,0,0,0-.2-.86,1.18,1.18,0,0,0-1.3.05.59.59,0,0,0-.1.89c.73,1,0,1.74-.31,2.78-.42-1.26-.78-2.3-1.09-3.36-.12-.38-.22-.51-.62-.26a9.13,9.13,0,0,1-2.57,1.09,1.42,1.42,0,0,0-.94.71,3.88,3.88,0,0,0-.19,2.84c.15.62.93.66,1.46.87a9.43,9.43,0,0,0,1.72.51c.84.18,1.7.29,2.55.43h1.59a23.19,23.19,0,0,0,3.86-.79c2-.69,2.18-1,1.92-3C20.65,12.16,20.64,12.14,20.64,12.12Z"/><path d="M26.53,7.79a4.5,4.5,0,0,1-1.31-.57c-.48-.31-.61-.17-.74.31-.19.73-.46,1.44-.75,2.3C23.44,9,23,8.45,23.49,7.71A.45.45,0,0,0,23.33,7a.9.9,0,0,0-.95,0,.5.5,0,0,0-.1.71c.53.74,0,1.3-.27,2.06-.25-.81-.5-1.47-.68-2.16s-.3-.83-.91-.39a4.94,4.94,0,0,1-1.59.65,1.21,1.21,0,0,0-.72.44c-.27.38-.36.71.21.93A12.08,12.08,0,0,0,20,9.93a1.58,1.58,0,0,1,1.34,1.47c.05.48.29.58.69.6a11.44,11.44,0,0,0,5.27-.88,1.26,1.26,0,0,0,.7-.64V9.06A1.85,1.85,0,0,0,26.53,7.79Z"/><path d="M9.68,9.3c.57-.22.48-.55.2-.93a1.2,1.2,0,0,0-.71-.44,6.63,6.63,0,0,1-1.78-.74C7,7,6.88,7,6.76,7.41c-.21.76-.49,1.51-.74,2.27-.28-.64-.84-1.2-.3-1.92a.48.48,0,0,0-.11-.7.86.86,0,0,0-1,0,.49.49,0,0,0-.13.75c.51.74,0,1.28-.26,2.08C4,9,3.71,8.26,3.51,7.53c-.12-.47-.25-.63-.73-.31a4.5,4.5,0,0,1-1.31.57A1.83,1.83,0,0,0,0,9.06v1.42a1.17,1.17,0,0,0,.7.64A11.44,11.44,0,0,0,6,12c.4,0,.64-.13.69-.61A1.57,1.57,0,0,1,8,9.93,13.11,13.11,0,0,0,9.68,9.3Z"/><path d="M14,8.39a2.71,2.71,0,0,0,2.59-1.48,5.6,5.6,0,0,0,.58-2.67A5.57,5.57,0,0,0,17,2.77,2.79,2.79,0,0,0,14.32.53a2.82,2.82,0,0,0-3.14,1.84,6,6,0,0,0,.27,4.49A2.65,2.65,0,0,0,14,8.39Z"/><path d="M21.61,5.86a2.3,2.3,0,0,0,2.78-.18,3.27,3.27,0,0,0,1.16-2.56A2.92,2.92,0,0,0,22.88,0a2.91,2.91,0,0,0-2.67,3.12A3.21,3.21,0,0,0,21.61,5.86Z"/><path d="M4.77,6.22a2.24,2.24,0,0,0,2-.7,3.2,3.2,0,0,0,.57-.95,3.46,3.46,0,0,0,.31-1.45A2.92,2.92,0,0,0,5,0,2.91,2.91,0,0,0,2.31,3.12,3,3,0,0,0,4.77,6.22Z"/></g></g></svg>