<svg xmlns="http://www.w3.org/2000/svg" viewBox="0 0 20 16"><g id="Layer_2" data-name="Layer 2"><g id="Camada_1" data-name="Camada 1"><ellipse cx="5.53" cy="2.56" rx="2.47" ry="2.46"/><path d="M20,3.43h0a.58.58,0,0,0,0-.19.74.74,0,0,0-1.46-.14c-.92,2.19-2.41,3.25-4,3.25-2.54,0-3.61-2.92-3.61-2.92h0a.13.13,0,0,0,0-.06.86.86,0,0,0-.86-.87.85.85,0,0,0-.86.73h0A4.16,4.16,0,0,1,5.46,6.35c-2.19,0-3.52-2.23-4-3.19A.72.72,0,0,0,.74,2.5.73.73,0,0,0,0,3.22a.76.76,0,0,0,0,.21H0v0A9.65,9.65,0,0,0,3.2,8V15h0v0a1,1,0,1,0,1.93,0V12.54h.74v2.52h0a1,1,0,0,0,1,.93,1,1,0,0,0,1-.93h0V7.88c.4-.13,1.06-.79,2.26-2.39a9.92,9.92,0,0,0,2.27,2.39s-.14.27-1.34,3.73c-.53,2,1.33,1.86,1.33,1.86V15h0a.94.94,0,0,0,1.88,0h0v0h0V13.47h.72v1.4h0v.06a1,1,0,0,0,2,0s0,0,0-.06h0V13.4c1.6,0,1.06-1.73,1.06-1.73L16.93,8A7.76,7.76,0,0,0,20,3.43Z"/><path d="M8.67,2a3.21,3.21,0,0,0,3.16-.61l0,0,.13.11a2.51,2.51,0,0,0-.21,1,2.64,2.64,0,0,0,5.28,0,2.45,2.45,0,0,0-.24-1c.19-.15.29-.16.41-.08a2,2,0,0,0,1.63.73,1.38,1.38,0,0,0,.87-.2.26.26,0,0,0,.09-.09c.13-.13,0-.36-.2-.33-.53-.37-.87-1-1.55-1.14a1.91,1.91,0,0,0-1.61.55,2.68,2.68,0,0,0-4.27.26l0,0A1.17,1.17,0,0,0,11.44.4,1.05,1.05,0,0,0,11.1.32a.78.78,0,0,0-.34,0,1.34,1.34,0,0,0-.5.29h0l-.3.23a5,5,0,0,1-1.27.8A.2.2,0,0,0,8.67,2Z"/></g></g></svg>