<svg xmlns="http://www.w3.org/2000/svg" viewBox="0 0 910.23 580.71"><defs><style>.cls-1{fill:#fff;fill-rule:evenodd;}</style></defs><g id="Layer_2" data-name="Layer 2"><g id="Camada_2" data-name="Camada 2"><path class="cls-1" d="M910.23,115.54A1063.14,1063.14,0,0,0,736.43,54v7.24Q768.71,69.63,800.3,80a1048.29,1048.29,0,0,1,109.93,43.08Z"/><path class="cls-1" d="M0,123.72a1067.92,1067.92,0,0,1,187.4-65v-7.2A1074.3,1074.3,0,0,0,0,116.17Z"/><path class="cls-1" d="M1.86,386.74c3.94,6.6,35.42,20,46,23.85,19.73,7.19,39.87,12.35,61.41,12.35,21.73,0,38.91-10.68,35.95-31.81-1.92-13.71-15.93-28.68-25.88-33.23-53.06-24.22-76.24-38-78.5-54.91-4.93-36.73,83.53-124.8,117.05-112.15,9.56,3.6,8.6,20.67,1.88,39.22-19.2,53.08-51.21,46.75-56.76,60.18-1.53,3.7,0,4.72,11.18,5,32.35.8,53.24-1.21,72.35-28.09,17.07-24,19.51-58.78-9.73-85.53a42.28,42.28,0,0,0-19.55-10.13c-61-13.75-150.13,72.11-145.12,130.69,1.48,17.33,12.57,34.31,39.53,49.41,16.95,10,32.3,12.47,48.07,20.63,19.21,9.94,12.59,29.12,3.8,30.71-18.92,3.42-52.06-10.7-70.32-18.65-6.38-2.78-9.88-5.85-17.73-4.78-5.88.81-12,3.35-13.58,7.25M788,290.09c1.85-11.34-6.49-42.52-19.13-49.62-10.23-5.74,3.14,1.17-7.62-3.82,11.6-22.2,17.72-64.58.32-80.37l-30.88,71.6c-205.94-93.5-433.06-99.24-547.61-72.65C250.2,176.11,236.85,248.36,215.8,261c108.1-89.13,326.43-95.54,501.93,1.7-6.7,11.85-17.93,43.64-42.09,88.79-3.79,5.95-8,12.46-12.93,17.5-2.5,2.55-4.94,5.32-7.82,7.9-9.67,8.64-22.08,19.48-38.95,23.54-32.33,7.78-29.72-15.58-28.86-34.3l3.21,2c8,5.68,15.49,10.77,25.4,7.78,24.94-7.51,41.87-31.86,45.46-60.17,1.71-13.45-2.58-20.64-10.65-27.83-19.31-17.21-34.64-20.89-51.56-5a127.93,127.93,0,0,0-37.85,66.88c-1.29,5.9-3.09,8-6,11.42-4.36,5.15-17.18,16.14-23.08,4.88-4.12-7.86-3.91-8.5-.81-14.31,4.15-7.75,22.5-43.38,23.14-52.86.72-10.63-10.35-20.68-19.45-20.84-16.18-.29-17,36.77-22.4,47l-15.3,26.42c-7.65,14.28-17.34,30.23-29.62,40.73-11.44,9.8-21.87,8.72-20.26-5,2.75-23.33,26.93-57.16,38.62-78,2.93-5.21,4.18-6.9-.42-14.12-5.12-8-17-15.74-22.85-6.3-4.49,7.27-9.3,13.34-13.81,21.25-4.3,7.53-6.31,11.54-10.36,19.39-6.45,12.48-10.05,22.82-17.81,34.39A41.37,41.37,0,0,1,417,369c-1.53,1.78-2.13,3.37-3.7,5.1-3.56,3.93-28.36,36.74-40,30.47-15.8-8.84,25.72-58.22,29.51-64.11,2-3.09,4.11-5.19,3.16-11-1.38-8.49-8.12-17.5-12.47-21.61-9.28-8.77-11.88-2.74-18.89,2.1-5.5,3.8-11.89,9.22-21.59,7.58,1.49-11.13,8.17-1.43,7.12-21.38-.83-15.95-18-29.63-32-20.34-9.28,6.11-28.14,22.83-14.84,37.59,12.67,7.51-8.18,46.73-13.81,57.62-8.09,15.64-30.9,33.25-30.7-4.39,0-3.86,11.62-30.53,2.58-52.77-5.15-12.66-17.92-21.77-28.16-27.65-16-9.16-24.83-9.36-37.4.75-17.85,14.36-29.89,36.93-36.39,59.83-3,10.41-6.18,30.56-1.44,43.06,4.2,11.08,11.91,15.73,20.51,21.19,3.2,2,5,3.56,8.53,5.36,15.23,7.85,29.23,3.91,40-3.26,13.7-9.13,15.12-17.37,21.71-25.21a4.69,4.69,0,0,1,1-1c18.63,48.06,41.82,25,52.58,1.59,14-24.18,19.57-38.39,31.28-60.27,7.83,5.36,9.43,6,20.57,8.56l-12.42,25.49c-4.35,11.46-8,25.26-.48,39.74,12.77,24.53,44.73,17.43,63,4.92,4.9-3.36,11.5-8.41,14.8-13.29a61.08,61.08,0,0,1,4,5.95c11.34,16.46,31.23,23.3,48,14.71,14.14-7.23,16.59-13.86,23.63-21.64,4.15-4.59,9.06-10.58,11.67-15.94,2.3,1.64,2.11,2,4.15,4.47,12.62,15.07,28.32,13.69,41.69,5.94,7.57,12.67,10.2,15.61,23.31,23.06,23.17,13.17,48.06,8.23,68.12-2.29a79.72,79.72,0,0,0,12.6-8.21c4.2-3.32,7.27-6.39,10.91-9.62,7.11,8.43,8.06,13.82,19.53,22.65,8.68,6.67,21.18,7.25,32.63,5.07,15.42-2.93,27.34-9.73,38.3-18.34,3.52-2.77,6.61-7,9.57-8.93,6.94,7.66,7.15,10.69,17,16.84,25.68,16.08,52.09,12.68,74,.13a101.1,101.1,0,0,0,17.31-12.42c5.16-4.46,11-10,14.36-15.64,3.14-5.37,8.32-11.34,9.48-19.27,1.29-8.75-4.16-20.57-12.7-20.27L882.84,360.7c-1.92,2.8-3.32,4.09-5.45,6.76-11.8,14.75-38.49,37.16-62.09,34-18.15-2.41-15.52-21.44-14.57-35.36,9.81,5.41,14.88,13.78,29.58,9.42,20.08-6,30.93-20.91,38.83-39.05C872,330,876.65,314.07,875,305c-2.13-11.71-13.43-19.48-20.2-24.23-10.67-7.48-17.88-11.35-31.72-5.16-21.27,9.52-40.52,45.78-46.75,68-3.25,11.59-5.88,16.09-13.13,25-5.85,7.22-11.3,14-18.84,20.05-23.15,18.73-51.19,15.39-42-19,9.31-35.07,32.27-90.12,39.24-99.54C752.93,274.25,777,285.38,788,290.09Zm59,7.44c-11.44,3.67-29.25,31.19-35.74,44-1,2-9.84,17.95-1.39,17.48,10-.56,31.6-32,35.91-43.64C846.57,313.34,853.38,295.49,847,297.53Zm-211.92-.28c-8.38.18-21.83,18.69-26.39,25.66-1.66,2.53-20.23,30.93-15.17,35.41C602.21,366,642.46,311.58,635.11,297.25ZM227.63,311.79c-8.17,4.24-20.95,26.58-25.63,38.57-2.22,5.69-16.94,51.85.49,51.17,10.79-.42,32.68-34.12,36.79-44.8C241.57,350.77,229.28,339.78,227.63,311.79Z"/><path class="cls-1" d="M644.29,57l17.6,2.83,1.29-8L654,50.34l5.37-33.47L651,15.52ZM599.75,15.06h.09l-.3,20.64-4.25-.47ZM583.39,48.92l8.49,1,1.7-7.32,6,.66,0,7.51,8.91,1L606.15,9.22,594.89,8Zm-60.64-4.87,8.26.46,1.44-25.92h.09L538,44.9l9.27.51,2.33-41.93L541.35,3,540,27.74h-.09L534.4,2.64l-9.32-.52Zm-46.64-1.59,8.54.18.87-42L477,.47ZM415.63,31.55a25.58,25.58,0,0,0,.54,4.66,13.67,13.67,0,0,0,1.39,3.8,6.53,6.53,0,0,0,6.28,3.43,7,7,0,0,0,3.83-1.11,8.34,8.34,0,0,0,2.64-3.18h.09l.11,3.42,7.47-.23-.7-23.11L426,19.56l.24,7.77,3-.09.17,5.41q.09,3.15-2.65,3.24a2.06,2.06,0,0,1-2.17-1.35,4.44,4.44,0,0,1-.32-1.21c0-.38-.07-.78-.08-1.2l-.63-20.75a6.72,6.72,0,0,1,.08-1.24A4.49,4.49,0,0,1,424,8.89a2.5,2.5,0,0,1,.78-1,2.15,2.15,0,0,1,1.31-.44,2.41,2.41,0,0,1,2.07.78,4,4,0,0,1,.72,2.45l.13,4.2,8.12-.24L437,10a12.26,12.26,0,0,0-1-4.8A8.06,8.06,0,0,0,433.51,2,9.69,9.69,0,0,0,430,.41a15.86,15.86,0,0,0-4.28-.4,10.63,10.63,0,0,0-7.89,3.34q-2.93,3.2-2.74,9.13ZM369.38,45.64,377.9,45,374.65,3.11l-8.52.66ZM314.24,16l1.66-.18c1.51-.16,2.47.06,2.9.69a8.38,8.38,0,0,1,.93,3.55,10.63,10.63,0,0,1-.08,3.78c-.24.82-1,1.3-2.29,1.44l-2.08.23Zm-4.7,35.57,8.49-.93-2-18,1.56-.18a3.36,3.36,0,0,1,2.59.54,3.88,3.88,0,0,1,1,2.56l.74,6.69c.22,2,.45,3.68.7,5A5.82,5.82,0,0,0,323.8,50l8.4-.92a5.63,5.63,0,0,1-1-2.53c-.24-1.21-.48-3-.73-5.26l-.81-7.37a7.13,7.13,0,0,0-1.79-4.22A6.09,6.09,0,0,0,324,27.79v-.11a6.56,6.56,0,0,0,3.76-3.77,16.13,16.13,0,0,0,.3-6.45q-.6-5.55-3.35-7.54t-8.51-1.37L305,9.78Zm-61-2.36q.9,5.55,4.36,8.29a11.54,11.54,0,0,0,15.85-2.58q2.41-3.69,1.51-9.24L267.18,26.8q-1-5.86-4.43-8.44A11.84,11.84,0,0,0,247,20.92q-2.47,3.54-1.53,9.4Zm5.24-21c-.08-.51-.14-1-.17-1.35a4,4,0,0,1,.09-1.19,2.11,2.11,0,0,1,.58-1,2.35,2.35,0,0,1,1.31-.59,2.45,2.45,0,0,1,1.44.14,2.11,2.11,0,0,1,.88.82,3.68,3.68,0,0,1,.46,1.09c.1.38.18.83.27,1.35l3.33,20.49c.06.41.11.81.14,1.2a4.11,4.11,0,0,1-.08,1.24,2.18,2.18,0,0,1-.57,1.13,2.27,2.27,0,0,1-1.31.61A2.07,2.07,0,0,1,257.79,51a4.43,4.43,0,0,1-.47-1.15c-.1-.37-.17-.77-.24-1.18Z"/><path class="cls-1" d="M244.75,578.76v-46q6,0,8.23,1.82a5.24,5.24,0,0,1,2.08,4l.18,5.76v34.46h16.33l.12-40.89a9.77,9.77,0,0,0-4.92-8.79,27.45,27.45,0,0,0-11.37-3.34v-.28q10-1,13.46-4.75t3.47-10.18v-14.1q0-9.19-5.56-13.11t-16.53-3.91H227.65v99.35Zm0-87.49h4a8.55,8.55,0,0,1,4.76,1.12,4.17,4.17,0,0,1,1.7,3.77v18a6.8,6.8,0,0,1-1.54,4.75c-1,1.12-2.93,1.67-5.72,1.67h-3.23Zm122.83,87.49v-13H346.29V530.9h20.16v-13H346.29V492.39h21v-13H329.19v99.35Zm50.73-99.35v13h15v86.37h17.1V492.39h14.84v-13Zm212.27-5.86,12.26-15.49,11.61,15.49H663l-13.87-23.86h-12.9L622,473.55Zm6.62,21.91q0-3.63,1.21-4.89c.8-.83,2.17-1.25,4.11-1.25a5.31,5.31,0,0,1,4,1.25q1.21,1.26,1.21,4.89v67.25q0,3.63-1.21,4.88a5.27,5.27,0,0,1-4,1.26q-2.91,0-4.11-1.26t-1.21-4.88ZM620.1,564a15.24,15.24,0,0,0,1.94,7.88,15,15,0,0,0,5.08,5.23,22,22,0,0,0,7,2.79,40.69,40.69,0,0,0,16.45,0,23.08,23.08,0,0,0,7.1-2.79,14.77,14.77,0,0,0,5.16-5.23,15.24,15.24,0,0,0,1.94-7.88V494.2a15.24,15.24,0,0,0-1.94-7.88,15,15,0,0,0-5.08-5.23,21.6,21.6,0,0,0-7.1-2.79,39.8,39.8,0,0,0-8.3-.84,38.71,38.71,0,0,0-8.23.84,21.54,21.54,0,0,0-7,2.79,15,15,0,0,0-5.08,5.23,15.24,15.24,0,0,0-1.94,7.88Zm-83.75,14.79v-46q6,0,8.23,1.82a5.27,5.27,0,0,1,2.08,4l.17,5.76v34.46h16.34l.11-40.89a9.75,9.75,0,0,0-4.92-8.79A27.36,27.36,0,0,0,547,525.74v-.28q10-1,13.47-4.75t3.47-10.18v-14.1q0-9.19-5.57-13.11t-16.53-3.91H519.25v99.35Zm0-87.49h4a8.57,8.57,0,0,1,4.76,1.12,4.16,4.16,0,0,1,1.69,3.77v18a6.8,6.8,0,0,1-1.53,4.75c-1,1.12-2.93,1.67-5.73,1.67h-3.22Z"/></g></g></svg>