<svg xmlns="http://www.w3.org/2000/svg" viewBox="0 0 8.06 16"><g id="Layer_2" data-name="Layer 2"><g id="Camada_1" data-name="Camada 1"><path d="M8.06,6.46c0,.07,0,.15-.05.23a.76.76,0,0,1-.56.55,2.91,2.91,0,0,1-.93.13H1.34A2.2,2.2,0,0,1,.51,7.2.73.73,0,0,1,0,6.54,2.63,2.63,0,0,1,.21,5.18,1,1,0,0,1,1,4.51a1.71,1.71,0,0,1,.71.07c.45.13.89.28,1.33.42a5.05,5.05,0,0,0,1.43.29l.33,0v0l-.18,0A4,4,0,0,1,3.49,5L3,4.81,1.91,4.36A1.1,1.1,0,0,1,1.49,4a.68.68,0,0,1-.14-.64,1.42,1.42,0,0,1,.24-.53.86.86,0,0,1,.83-.33,3.3,3.3,0,0,1,1.2.33,3.86,3.86,0,0,0,.64.25,2.33,2.33,0,0,0,.53,0l.06,0-.12,0A3.82,3.82,0,0,1,3.5,2.65c-.31-.15-.64-.27-1-.4l-.15-.08c-.08,0-.08-.08,0-.14a2.93,2.93,0,0,1,.8-.65,2.26,2.26,0,0,0,.26-.16A.44.44,0,0,0,3.64.8.3.3,0,0,0,3.47.54a.71.71,0,0,1-.14-.1.18.18,0,0,1,0-.32A1.86,1.86,0,0,1,3.9,0,1.89,1.89,0,0,1,5.41.53,1.53,1.53,0,0,1,5.9,1.65,1.46,1.46,0,0,0,6,2.2a1.12,1.12,0,0,0,.36.47,1.61,1.61,0,0,1,.44.46A1.25,1.25,0,0,1,7,4a1,1,0,0,0,.44,1,1.55,1.55,0,0,1,.55.8c0,.12.06.25.09.38Z"/><path d="M4,16a.55.55,0,0,1-.24-.34c-.34-.95-.68-1.9-1-2.85-.51-1.43-1-2.85-1.54-4.28a1.1,1.1,0,0,1-.07-.36.45.45,0,0,1,.41-.41H6.32a1,1,0,0,1,.24,0,.45.45,0,0,1,.33.59q-.12.39-.27.78L4.33,15.64a.6.6,0,0,1-.24.36Z"/></g></g></svg>