<svg xmlns="http://www.w3.org/2000/svg" viewBox="0 0 16 10.21"><defs><style>.cls-1{fill:#1e8b11;}.cls-1,.cls-2,.cls-3{fill-rule:evenodd;}.cls-2{fill:#ec008c;}.cls-3{fill:#1e8b11;}</style></defs><g id="Layer_2" data-name="Layer 2"><g id="Camada_1" data-name="Camada 1"><path class="cls-1" d="M16,2A18.48,18.48,0,0,0,12.94,1v.13a11.22,11.22,0,0,1,1.13.33A17.94,17.94,0,0,1,16,2.16Z"/><path class="cls-1" d="M0,2.17A19.38,19.38,0,0,1,3.29,1V.9A20.29,20.29,0,0,0,0,2Z"/><path class="cls-2" d="M0,6.8a3.22,3.22,0,0,0,.81.42,3.29,3.29,0,0,0,1.08.21c.38,0,.68-.18.63-.55a.89.89,0,0,0-.45-.59c-.94-.42-1.34-.67-1.38-1-.09-.65,1.47-2.2,2.05-2,.17.07.16.37,0,.69-.34.94-.9.83-1,1.06,0,.07,0,.08.2.09A1.27,1.27,0,0,0,3.28,4.7a1.11,1.11,0,0,0-.17-1.51A.78.78,0,0,0,2.76,3C1.69,2.77.12,4.28.21,5.31a1.15,1.15,0,0,0,.7.87c.3.18.57.22.84.36s.22.51.07.54A2.84,2.84,0,0,1,.58,6.75c-.11,0-.17-.1-.31-.08A.3.3,0,0,0,0,6.8M13.85,5.1a1.15,1.15,0,0,0-.33-.87l-.14-.07c.21-.39.31-1.14,0-1.41L12.84,4A16.64,16.64,0,0,0,3.22,2.73a1.12,1.12,0,0,1,.57,1.86c1.9-1.57,5.74-1.68,8.83,0-.12.21-.32.76-.74,1.56a2.26,2.26,0,0,1-.23.31l-.14.13a1.55,1.55,0,0,1-.68.42c-.57.14-.53-.28-.51-.6l.06,0a.5.5,0,0,0,.44.14,1.23,1.23,0,0,0,.8-1.06.48.48,0,0,0-.19-.49c-.33-.3-.6-.37-.9-.09a2.28,2.28,0,0,0-.67,1.18.38.38,0,0,1-.1.2c-.08.09-.3.28-.41.09s-.07-.15,0-.26a4.83,4.83,0,0,0,.4-.93.37.37,0,0,0-.34-.36c-.28,0-.3.64-.39.82l-.27.47a2.46,2.46,0,0,1-.52.71c-.2.18-.39.16-.36-.08a5,5,0,0,1,.68-1.37c.05-.1.08-.12,0-.25s-.29-.28-.4-.11-.16.23-.24.37a3.65,3.65,0,0,0-.18.34c-.12.22-.18.4-.32.61a.47.47,0,0,1-.06.09l-.07.09c-.06.06-.49.64-.7.53S7,6.09,7.08,6a.22.22,0,0,0,.06-.19.87.87,0,0,0-.22-.38c-.17-.15-.21,0-.33,0a.48.48,0,0,1-.38.13c0-.19.14,0,.12-.37S6,4.68,5.77,4.85s-.5.4-.26.66-.15.82-.25,1-.54.59-.54-.08a1.52,1.52,0,0,0,0-.92A1.08,1.08,0,0,0,4.27,5c-.28-.16-.43-.16-.65,0A2,2,0,0,0,3,6.1a1.45,1.45,0,0,0,0,.75.79.79,0,0,0,.36.38l.15.09a.66.66,0,0,0,.71-.06c.24-.16.26-.3.38-.44l0,0c.32.85.73.44.92,0s.34-.68.55-1.06a.79.79,0,0,0,.36.15l-.22.45a.85.85,0,0,0,0,.7c.23.43.79.3,1.11.08a1,1,0,0,0,.26-.23.61.61,0,0,1,.07.1.67.67,0,0,0,.85.26,1.09,1.09,0,0,0,.41-.38,1.46,1.46,0,0,0,.21-.28s0,0,.07.08a.52.52,0,0,0,.73.1.86.86,0,0,0,.41.41,1.22,1.22,0,0,0,1.2,0A1.64,1.64,0,0,0,11.71,7l.19-.17c.13.14.14.24.35.39a.7.7,0,0,0,.57.09A1.5,1.5,0,0,0,13.49,7l.17-.16a1.07,1.07,0,0,0,.3.3,1.22,1.22,0,0,0,1.3,0,1.37,1.37,0,0,0,.3-.22,1,1,0,0,0,.26-.27A1,1,0,0,0,16,6.33c0-.15-.07-.36-.22-.36l-.24.37-.1.12a1.44,1.44,0,0,1-1.09.6c-.32,0-.27-.38-.25-.62.17.09.26.24.52.16a1.09,1.09,0,0,0,.68-.69,1.2,1.2,0,0,0,.1-.55c0-.21-.24-.34-.35-.43a.5.5,0,0,0-.56-.09A2.09,2.09,0,0,0,13.65,6a1.16,1.16,0,0,1-.23.44,2.24,2.24,0,0,1-.34.35c-.4.33-.9.27-.73-.33A8.83,8.83,0,0,1,13,4.75C13.23,4.82,13.66,5,13.85,5.1Zm1,.13c-.2.06-.52.55-.63.77,0,0-.17.32,0,.31s.55-.56.63-.77C14.88,5.51,15,5.19,14.89,5.23Zm-3.73,0c-.14,0-.38.32-.46.45s-.36.54-.27.62S11.29,5.48,11.16,5.23ZM4,5.48a1.83,1.83,0,0,0-.45.68c0,.1-.3.91,0,.9s.57-.6.65-.79S4,6,4,5.48Z"/><path class="cls-3" d="M11.33,1l.3.05,0-.14-.16,0L11.59.3l-.15,0ZM10.54.26h0V.63h-.08Zm-.29.6.15,0,0-.13h.11V.89l.15,0,0-.75-.19,0ZM9.19.77h.14l0-.45h0l.1.46h.16l0-.74H9.52l0,.44h0L9.39.05H9.23Zm-.82,0h.15V0H8.38ZM7.31.55a.28.28,0,0,0,0,.09.14.14,0,0,0,0,.06l0,.05h.07a.08.08,0,0,0,.07,0,.1.1,0,0,0,0-.05h0V.75H7.7V.34h-.2V.48h.06V.57s0,.06,0,.06,0,0,0,0h0V.16s0,0,0,0,0,0,0,0h0a.43.43,0,0,1,0,0V.26h.14V.18a.2.2,0,0,0,0-.09.1.1,0,0,0,0,0,.09.09,0,0,0-.06,0H7.48a.18.18,0,0,0-.14.06.2.2,0,0,0,0,.16ZM6.49.8h.15l0-.74-.15,0Zm-1-.52h0s0,0,0,0a.08.08,0,0,1,0,.06V.42l0,0h0ZM5.44.91l.15,0,0-.32h.07l0,0V.74s0,.07,0,.09,0,0,0,.05l.15,0s0,0,0,0,0,0,0-.09l0-.13a.1.1,0,0,0,0-.08.07.07,0,0,0-.06,0h0A.12.12,0,0,0,5.76.42a.34.34,0,0,0,0-.11A.23.23,0,0,0,5.71.17a.22.22,0,0,0-.15,0l-.2,0ZM4.37.86A.21.21,0,0,0,4.44,1a.2.2,0,0,0,.15,0A.15.15,0,0,0,4.72,1a.2.2,0,0,0,0-.16l0-.33A.22.22,0,0,0,4.62.32a.19.19,0,0,0-.15,0,.2.2,0,0,0-.13.08.2.2,0,0,0,0,.16ZM4.46.49v0s0,0,0,0h0s0,0,0,0,0,0,0,0v0l0,.36v0a0,0,0,0,0,0,0h0a0,0,0,0,1,0,0h0a0,0,0,0,0,0,0v0Z"/><path class="cls-3" d="M4.3,10.17V9.36a.21.21,0,0,1,.15,0s0,0,0,.07v.7h.28V9.45a.17.17,0,0,0-.09-.15.52.52,0,0,0-.2-.06h0a.34.34,0,0,0,.24-.09A.24.24,0,0,0,4.79,9V8.73a.27.27,0,0,0-.1-.23.48.48,0,0,0-.29-.07H4v1.74Zm0-1.53h.07s.07,0,.09,0a.06.06,0,0,1,0,.06V9a.11.11,0,0,1,0,.08.13.13,0,0,1-.1,0H4.3Zm2.16,1.53V10H6.09V9.33h.35V9.1H6.09V8.66h.37V8.43H5.79v1.74Zm.89-1.74v.23h.27v1.51h.3V8.66h.26V8.43Zm3.73-.11.22-.27.2.27h.15l-.24-.42h-.23l-.25.42Zm.12.39a.2.2,0,0,1,0-.09l.07,0a.1.1,0,0,1,.07,0s0,.05,0,.09V9.89s0,.07,0,.09a.1.1,0,0,1-.07,0l-.07,0a.2.2,0,0,1,0-.09Zm-.3,1.2a.29.29,0,0,0,0,.14l.09.09a.29.29,0,0,0,.13,0l.14,0,.15,0a.31.31,0,0,0,.12,0,.2.2,0,0,0,.09-.09.29.29,0,0,0,0-.14V8.69a.29.29,0,0,0,0-.14.2.2,0,0,0-.09-.09.26.26,0,0,0-.12-.05l-.15,0-.14,0a.29.29,0,0,0-.13.05l-.09.09a.29.29,0,0,0,0,.14Zm-1.47.26V9.36c.07,0,.12,0,.14,0a.07.07,0,0,1,0,.07v.7H9.9V9.45a.16.16,0,0,0-.09-.15.47.47,0,0,0-.19-.06h0a.33.33,0,0,0,.23-.09A.24.24,0,0,0,9.91,9V8.73a.24.24,0,0,0-.1-.23.46.46,0,0,0-.29-.07H9.13v1.74Zm0-1.53H9.5a.11.11,0,0,1,.08,0,.06.06,0,0,1,0,.06V9a.19.19,0,0,1,0,.08.16.16,0,0,1-.11,0H9.43Z"/></g></g></svg>