<svg xmlns="http://www.w3.org/2000/svg" viewBox="0 0 1920 227.71"><defs><style>.cls-1{fill:#c13f9a;fill-rule:evenodd;}</style></defs><g id="Layer_2" data-name="Layer 2"><g id="Camada_1" data-name="Camada 1"><path class="cls-1" d="M1920,0V227.71H0V8.81H189.36s311.05,4,350.91,34.07c1.5,1.14,3,2.25,4.6,3.24,15.25,9.46,72.33,41.57,99.53,40.49,24.56-1.27,40.26-14.69,44-16.15,16.07-8.89,43.36-15.89,33.76,17.62-12,35.76-18,64,13.21,63.12s18.46-39.27,17.62-42.57c-8.74-26.38,2.13-49.73,35.23-19.09,35.19,30.57,43.7,43.72,76.33,42.57s80.43-32,92.47-41.1c26.4-19.23,35.58,4,25,33.76-15.62,39.28-26.4,85,27.83,92.29a18.41,18.41,0,0,0,3.06.16c25.13-.91,37.62-24.33,26.82-61.54a20.77,20.77,0,0,0-1.16-3c-18.16-38.87-7.57-76.45,10-84.72.65-.3,1.28-.6,1.9-1,20.78-11.82,53.08-26.8,76.06-7.52a21.48,21.48,0,0,0,1.7,1.32c22.92,15.71,53.9,17.25,87.07-4a19.73,19.73,0,0,0,3-2.34C1249.58,24.8,1254.93,7.16,1327,8.81c73.09,1.63,152.81,14.23,259.82,47s135.14,37.65,220.18,22c4-.64,69.37-18.72,91.34-54a61.85,61.85,0,0,1,9-11.42C1912.83,6.83,1920,0,1920,0Z"/></g></g></svg>