<?xml version="1.0" encoding="utf-8"?>
<!-- Generator: Adobe Illustrator 25.3.1, SVG Export Plug-In . SVG Version: 6.00 Build 0)  -->
<svg version="1.1" id="Layer_1" xmlns="http://www.w3.org/2000/svg" xmlns:xlink="http://www.w3.org/1999/xlink" x="0px" y="0px"
	 viewBox="0 0 1920 228.8" style="enable-background:new 0 0 1920 228.8;" xml:space="preserve">
<style type="text/css">
	.st0{fill:#FC197E;}
</style>
<path class="st0" d="M1920,0v228.7H0V0.1h189.4c0,0,319,4.1,352.3,35.2c7,4.9,72.9,43.8,102.8,42.6c24.6-1.3,40.3-14.7,44-16.2
	c16.1-8.9,43.4-15.9,33.8,17.6c-12,35.8-18,64,13.2,63.1c31.2-0.9,18.5-39.3,17.6-42.6c-8.7-26.4,2.1-49.7,35.2-19.1
	c35.2,30.6,43.7,43.7,76.3,42.6c32.6-1.1,80.4-32,92.5-41.1c26.4-19.2,35.6,4,25,33.8c-15.8,39.7-26.6,85.8,29.4,92.5
	c26.5,0,39.7-24.2,27.9-63.1c-19.5-40.1-8.1-79.2,10.3-86.6c21-12,54.4-28,77.8-7.3c23.4,16.5,55.3,18.2,89.5-4.4
	C1248.3,17.8,1253.6,0,1318.5,0H1920z"/>
</svg>
