<svg xmlns="http://www.w3.org/2000/svg" viewBox="0 0 1920 218.5"><defs><style>.cls-1{fill:#fc197e;}</style></defs><g id="Layer_2" data-name="Layer 2"><g id="Layer_1-2" data-name="Layer 1"><path class="cls-1" d="M1920,0V13c-142.4,0-519.8-1.3-592.9-2.9s-77.5,16.5-110.1,47c-34.2,22.6-66.1,20.9-89.5,4.4-23.4-20.7-56.8-4.7-77.8,7.3-18.4,7.4-29.8,46.5-10.3,86.6,11.8,38.9-1.4,63.1-27.9,63.1-56-6.7-45.2-52.8-29.4-92.5,10.6-29.8,1.4-53-25-33.8-12.1,9.1-59.9,40-92.5,41.1s-41.1-12-76.3-42.6c-33.1-30.6-43.9-7.3-35.2,19.1.9,3.3,13.6,41.7-17.6,42.6s-25.2-27.3-13.2-63.1c9.6-33.5-17.7-26.5-33.8-17.6-3.7,1.5-19.4,14.9-44,16.2-29.9,1.2-95.8-37.7-102.8-42.6C508.4,14.2,189.4,10.1,189.4,10.1H0V0Z"/></g></g></svg>