<?xml version="1.0" encoding="utf-8"?>
<!-- Generator: Adobe Illustrator 25.3.1, SVG Export Plug-In . SVG Version: 6.00 Build 0)  -->
<svg version="1.1" id="Layer_1" xmlns="http://www.w3.org/2000/svg" xmlns:xlink="http://www.w3.org/1999/xlink" x="0px" y="0px"
	 viewBox="0 0 1920 249.5" style="enable-background:new 0 0 1920 249.5;" xml:space="preserve">
<style type="text/css">
	.st0{fill-rule:evenodd;clip-rule:evenodd;fill:#C13F9A;}
</style>
<g id="Layer_2_1_">
	<g id="Camada_1">
		<path class="st0" d="M0,41.1h189.4c0,0,311,4,350.9,34.1c1.5,1.1,3,2.2,4.6,3.2c15.2,9.5,72.3,41.6,99.5,40.5
			c24.6-1.3,40.3-14.7,44-16.2c16.1-8.9,43.4-15.9,33.8,17.6c-12,35.8-18,64,13.2,63.1s18.5-39.3,17.6-42.6
			c-8.7-26.4,2.1-49.7,35.2-19.1c35.2,30.6,43.7,43.7,76.3,42.6s80.4-32,92.5-41.1c26.4-19.2,35.6,4,25,33.8
			c-15.6,39.3-26.4,84.9,27.8,92.3c1,0.1,2,0.2,3.1,0.2c25.1-0.9,37.6-24.3,26.8-61.5c-0.3-1-0.7-2-1.2-3
			c-18.2-38.9-7.6-76.4,10-84.7c0.7-0.3,1.3-0.6,1.9-0.9c20.8-11.8,53.1-26.8,76.1-7.5c0.5,0.5,1.1,0.9,1.7,1.3
			c22.9,15.7,53.9,17.2,87.1-4c1.1-0.7,2.1-1.5,3-2.3c31.3-29.7,36.7-47.3,108.7-45.7c73.1,1.6,152.8,14.2,259.8,47
			s135.1,37.7,220.2,22c4-0.6,69.4-18.7,91.3-54c2.5-4.1,5.6-8,9-11.4c5.6-5.5,12.7-12.4,12.7-12.4V0H0V41.1z"/>
	</g>
</g>
</svg>
