<svg xmlns="http://www.w3.org/2000/svg" viewBox="0 0 1920 386.5"><defs><style>.cls-1{fill:#fc197e;}</style></defs><g id="Layer_2" data-name="Layer 2"><g id="Camada_1" data-name="Camada 1"><path class="cls-1" d="M1920,0V386.5H0V96c29.46,18.1,60,33.76,93.74,42.49,26.47,6.85,52.92,11.32,78.86-2.17,33.92-17.66,70.74-23.67,108.25-26.95,46.17-4,92.33-3.47,138.53-.21,57.16,4,113.9,11.27,169.13,26.66,62,17.28,124.49,23.05,188.35,15,46.06-5.84,92.09-12.32,138.32-16.33,59.78-5.18,117.83.48,172.4,29.7,32.42,17.36,68.91,23.39,105.45,25.91,25.82,1.79,49.72-5.92,72.21-18.63,32.25-18.21,66.68-27.9,104.08-24.5,28.88,2.62,56,11.51,82.87,22.07,15.19,6,23.74,16.6,28.62,31.29,7.58,22.82,6.18,46.26,5.5,69.78-.58,19.91-1.14,40,.86,59.74,1.75,17.13,6.6,33.6,22,43,7.88,4.85,17.74,5.68,26,1.47,7.91-4,15.68-13.17,15.68-33.52a460.17,460.17,0,0,0-4.79-68.5,162.69,162.69,0,0,1-1-39.44c2.91-29.82,23.08-47.7,53-50.05,35.61-2.79,62.26,12.46,83.06,39.9,13.92,18.37,29,19.33,44.72,2.38s21.5-38,26-59.58c7-33.38,18.26-64.79,39.74-91.85,31.42-39.6,73.64-61,121.85-72.23C1915.61.92,1917.81.47,1920,0Z"/></g></g></svg>