<svg id="Layer_1" data-name="Layer 1" xmlns="http://www.w3.org/2000/svg" viewBox="0 0 15.72 15.73"><defs><style>.cls-1{fill:#fc197e;}.cls-2{fill:#fefefe;}.cls-3{fill:#636363;}</style></defs><path d="M1.92,15.93A2,2,0,0,1,.33,14.48a2.27,2.27,0,0,0-.06-.25A1.77,1.77,0,0,0,1,15.51,1.78,1.78,0,0,0,2,16S2,15.93,1.92,15.93ZM.28,3.19h0s0,.06,0,.09A.17.17,0,0,0,.28,3.19Z" transform="translate(-0.26 -0.23)"/><path class="cls-1" d="M15.87,2.76a2.07,2.07,0,0,0-1.94-1.33H12.81c-.23,0-.23,0-.23-.24s0-.31,0-.47a.54.54,0,0,0-1.07,0v.43c0,.27,0,.27-.27.27H4.88c-.11,0-.16,0-.16-.16s0-.34,0-.52A.49.49,0,0,0,4.19.23a.49.49,0,0,0-.54.52c0,.14,0,.28,0,.43s0,.25-.25.25H2.33a2,2,0,0,0-1.16.33,1.8,1.8,0,0,0-.9,1.41v0h0a.17.17,0,0,1,0,.1.14.14,0,0,1,0,.06V14.23a2.27,2.27,0,0,1,.06.25,2,2,0,0,0,1.59,1.45s.07,0,.08,0H14.19c.13,0,.26,0,.39-.06A2,2,0,0,0,16,14.05V3.39A1.67,1.67,0,0,0,15.87,2.76ZM13.85,15H2.37a1.05,1.05,0,0,1-1.13-1.14V5.92c0-.25,0-.27.27-.27H14.72c.24,0,.26,0,.26.27v7.92A1.05,1.05,0,0,1,13.85,15Z" transform="translate(-0.26 -0.23)"/><path class="cls-2" d="M.28,3.19s0,0,0,0a0,0,0,0,1,0,0h0Z" transform="translate(-0.26 -0.23)"/><path class="cls-2" d="M2,16a1.78,1.78,0,0,1-1-.45,1.77,1.77,0,0,1-.69-1.28,2.27,2.27,0,0,1,.06.25,2,2,0,0,0,1.59,1.45S2,15.92,2,16Z" transform="translate(-0.26 -0.23)"/><path class="cls-3" d="M.28,3.19a.17.17,0,0,1,0,.1.14.14,0,0,1,0,.06V3.19h0Z" transform="translate(-0.26 -0.23)"/></svg>