<?xml version="1.0" encoding="utf-8"?>
<!-- Generator: Adobe Illustrator 25.3.1, SVG Export Plug-In . SVG Version: 6.00 Build 0)  -->
<svg version="1.1" id="Layer_1" xmlns="http://www.w3.org/2000/svg" xmlns:xlink="http://www.w3.org/1999/xlink" x="0px" y="0px"
	 viewBox="0 0 1920 30" style="enable-background:new 0 0 1920 30;" xml:space="preserve">
<style type="text/css">
	.st0{fill-rule:evenodd;clip-rule:evenodd;fill:#8ecfbd;}
</style>
<path class="st0" d="M1920,1.6V30H0V11.8c6.2,1.2,16,1.5,29.4-2.7c11.5-5.2,23.9-7.8,36.5-7.7c13.8-0.1,27.5,3.1,39.8,9.3
	c5.5,1.9,16.6,3.8,33.7-1.6c11.5-5.2,24-7.8,36.5-7.7c13.8-0.1,27.5,3.1,39.8,9.3c5.1,1.7,15,3.5,29.9-0.5
	c24.9-11.9,53.9-11.8,78.7,0.5c5.5,1.9,16.6,3.8,33.7-1.6c11.5-5.2,24-7.8,36.5-7.7c13.8-0.1,27.5,3.1,39.8,9.3
	c5.1,1.7,14.9,3.5,29.9-0.5c24-11.5,51.9-11.8,76.1-0.8l-0.1-0.6c0,0,13.9,8.6,43.1,0l-0.4,0.8c11.8-5.5,24.6-8.3,37.5-8.2
	c16.3,0,31.3,4.2,43,11.1c6,0.4,12-0.2,17.8-1.6c12.4-6.4,26.2-9.7,40.2-9.5c15.3,0,29.5,3.7,40.9,9.9c6.2,1.5,17,2.5,32.4-1.3
	c24.5-11.5,52.8-11.4,77.2,0.3c4.3,1.5,13,3.5,26.2,1.6c11.6-6.5,26.1-10.4,41.9-10.4c12.9-0.1,25.6,2.6,37.3,8l-0.1-0.6
	c0,0,10.9,6.7,33.8,2.3c24.9-12.7,54.3-13,79.5-0.8c4.8,1.7,14.8,3.9,30.5,0.8c12.5-6.5,26.4-9.9,40.6-9.7c12.9-0.1,25.6,2.6,37.3,8
	l-0.1-0.6c0,0,9.6,5.9,29.5,3c11.6-6.5,26.1-10.4,41.9-10.4c15.7,0,30.2,3.9,41.8,10.4c6.4,1.2,16.4,1.6,29.9-1.8
	c12-5.7,25-8.7,38.3-8.5c15.7,0,30.2,3.9,41.8,10.4c6,1.1,15,1.5,27.1-1.2c24.2-11.9,52.4-12.3,76.9-1.2l-0.1-0.6
	c0,0,10.2,6.3,31.5,2.7c11.5-6.4,25.8-10.1,41.3-10.1c13.5-0.1,26.9,2.9,39,8.9c4.6,1.6,13.9,3.7,28.2,1.2
	c11.5-6.4,25.8-10.1,41.3-10.1c12.9-0.1,25.6,2.6,37.3,8l-0.1-0.6c0,0,10.2,6.3,31.5,2.7c11.5-6.4,25.8-10.1,41.3-10.1
	c13.5-0.1,26.8,2.9,39,8.9c4.6,1.6,13.9,3.7,28.2,1.2C1894.5,6,1906.7,2.4,1920,1.6z"/>
<path class="st0" d="M1920,1.6V30H0V11.8c6.2,1.2,16,1.5,29.4-2.7c11.5-5.2,23.9-7.8,36.5-7.7c13.8-0.1,27.5,3.1,39.8,9.3
	c5.5,1.9,16.6,3.8,33.7-1.6c11.5-5.2,24-7.8,36.5-7.7c13.8-0.1,27.5,3.1,39.8,9.3c5.1,1.7,15,3.5,29.9-0.5
	c24.9-11.9,53.9-11.8,78.7,0.5c5.5,1.9,16.6,3.8,33.7-1.6c11.5-5.2,24-7.8,36.5-7.7c13.8-0.1,27.5,3.1,39.8,9.3
	c5.1,1.7,14.9,3.5,29.9-0.5c24-11.5,51.9-11.8,76.1-0.8l-0.1-0.6c0,0,13.9,8.6,43.1,0l-0.4,0.8c11.8-5.5,24.6-8.3,37.5-8.2
	c16.3,0,31.3,4.2,43,11.1c6,0.4,12-0.2,17.8-1.6c12.4-6.4,26.2-9.7,40.2-9.5c15.3,0,29.5,3.7,40.9,9.9c6.2,1.5,17,2.5,32.4-1.3
	c24.5-11.5,52.8-11.4,77.2,0.3c4.3,1.5,13,3.5,26.2,1.6c11.6-6.5,26.1-10.4,41.9-10.4c12.9-0.1,25.6,2.6,37.3,8l-0.1-0.6
	c0,0,10.9,6.7,33.8,2.3c24.9-12.7,54.3-13,79.5-0.8c4.8,1.7,14.8,3.9,30.5,0.8c12.5-6.5,26.4-9.9,40.6-9.7c12.9-0.1,25.6,2.6,37.3,8
	l-0.1-0.6c0,0,9.6,5.9,29.5,3c11.6-6.5,26.1-10.4,41.9-10.4c15.7,0,30.2,3.9,41.8,10.4c6.4,1.2,16.4,1.6,29.9-1.8
	c12-5.7,25-8.7,38.3-8.5c15.7,0,30.2,3.9,41.8,10.4c6,1.1,15,1.5,27.1-1.2c24.2-11.9,52.4-12.3,76.9-1.2l-0.1-0.6
	c0,0,10.2,6.3,31.5,2.7c11.5-6.4,25.8-10.1,41.3-10.1c13.5-0.1,26.9,2.9,39,8.9c4.6,1.6,13.9,3.7,28.2,1.2
	c11.5-6.4,25.8-10.1,41.3-10.1c12.9-0.1,25.6,2.6,37.3,8l-0.1-0.6c0,0,10.2,6.3,31.5,2.7c11.5-6.4,25.8-10.1,41.3-10.1
	c13.5-0.1,26.8,2.9,39,8.9c4.6,1.6,13.9,3.7,28.2,1.2C1894.5,6,1906.7,2.4,1920,1.6z"/>
</svg>
